<svg width="153" height="39" viewBox="0 0 153 39" fill="none" xmlns="http://www.w3.org/2000/svg">
<g clip-path="url(#clip0_6512_31)">
<mask id="mask0_6512_31" style="mask-type:luminance" maskUnits="userSpaceOnUse" x="0" y="0" width="153" height="39">
<path d="M153 0.5H0V38.5H153V0.5Z" fill="white"/>
</mask>
<g mask="url(#mask0_6512_31)">
<path d="M52.7888 9.42727C52.7056 8.58812 52.3484 7.93623 51.7173 7.47157C51.0862 7.00692 50.2298 6.7746 49.1479 6.7746C48.4128 6.7746 47.7921 6.87863 47.2858 7.08668C46.7796 7.2878 46.3912 7.56867 46.1207 7.92929C45.8572 8.28991 45.7254 8.69908 45.7254 9.1568C45.7116 9.53823 45.7913 9.87111 45.9647 10.1555C46.145 10.4398 46.3912 10.686 46.7033 10.894C47.0154 11.0951 47.376 11.272 47.7851 11.4246C48.1943 11.5702 48.6312 11.695 49.0959 11.7991L51.01 12.2568C51.9393 12.4648 52.7923 12.7422 53.569 13.089C54.3457 13.4357 55.0184 13.8622 55.5871 14.3685C56.1558 14.8748 56.5962 15.4712 56.9082 16.1578C57.2273 16.8443 57.3902 17.6315 57.3972 18.5191C57.3902 19.8229 57.0573 20.9534 56.3985 21.9104C55.7466 22.8605 54.8034 23.5991 53.569 24.1262C52.3415 24.6463 50.8609 24.9064 49.1271 24.9064C47.4072 24.9064 45.9092 24.6428 44.6332 24.1158C43.364 23.5887 42.3723 22.8085 41.658 21.7752C40.9506 20.7349 40.5796 19.4484 40.5449 17.9158H44.9036C44.9522 18.6301 45.1568 19.2265 45.5174 19.705C45.8849 20.1766 46.3739 20.5338 46.9841 20.7765C47.6014 21.0123 48.2983 21.1302 49.0751 21.1302C49.8379 21.1302 50.5002 21.0192 51.062 20.7973C51.6306 20.5754 52.071 20.2668 52.3831 19.8715C52.6952 19.4762 52.8512 19.0219 52.8512 18.5087C52.8512 18.0302 52.7091 17.628 52.4247 17.302C52.1473 16.9761 51.7381 16.6987 51.1972 16.4698C50.6632 16.241 50.0078 16.0329 49.2311 15.8457L46.9113 15.2631C45.1151 14.8262 43.6969 14.1431 42.6567 13.2138C41.6164 12.2845 41.0997 11.0327 41.1067 9.45848C41.0997 8.16855 41.443 7.0416 42.1365 6.07763C42.837 5.11365 43.7975 4.36119 45.018 3.82026C46.2386 3.27932 47.6256 3.00885 49.1791 3.00885C50.7603 3.00885 52.1404 3.27932 53.3193 3.82026C54.5052 4.36119 55.4276 5.11365 56.0864 6.07763C56.7453 7.0416 57.0851 8.15815 57.1059 9.42727H52.7888Z" fill="#06235B"/>
<path d="M64.6522 20.0067L64.6626 14.691H65.3075L70.4256 8.62626H75.5125L68.6364 16.6571H67.5857L64.6522 20.0067ZM60.6367 24.6047V3.30011H65.0683V24.6047H60.6367ZM70.6233 24.6047L65.9213 17.6453L68.8756 14.5141L75.8142 24.6047H70.6233Z" fill="#06235B"/>
<path d="M77.979 24.6047V8.62626H82.4105V24.6047H77.979ZM80.2051 6.56654C79.5463 6.56654 78.9811 6.34808 78.5095 5.91117C78.0449 5.46733 77.8125 4.93679 77.8125 4.31957C77.8125 3.70928 78.0449 3.18569 78.5095 2.74878C78.9811 2.30493 79.5463 2.08301 80.2051 2.08301C80.864 2.08301 81.4257 2.30493 81.8904 2.74878C82.3619 3.18569 82.5977 3.70928 82.5977 4.31957C82.5977 4.93679 82.3619 5.46733 81.8904 5.91117C81.4257 6.34808 80.864 6.56654 80.2051 6.56654Z" fill="#06235B"/>
<path d="M90.6854 3.30011V24.6047H86.2539V3.30011H90.6854Z" fill="#06235B"/>
<path d="M98.9588 3.30011V24.6047H94.5273V3.30011H98.9588Z" fill="#06235B"/>
<path d="M117.013 10.1867C116.868 9.6804 116.663 9.23309 116.4 8.84472C116.136 8.44942 115.814 8.11654 115.432 7.84607C115.058 7.56867 114.628 7.35715 114.142 7.21151C113.664 7.06587 113.133 6.99306 112.551 6.99306C111.462 6.99306 110.505 7.26352 109.68 7.80446C108.861 8.3454 108.223 9.13253 107.766 10.1659C107.308 11.1922 107.079 12.4475 107.079 13.9316C107.079 15.4157 107.304 16.6779 107.755 17.7181C108.206 18.7584 108.844 19.5525 109.669 20.1003C110.495 20.6413 111.469 20.9118 112.592 20.9118C113.612 20.9118 114.482 20.7314 115.203 20.3708C115.932 20.0033 116.486 19.4866 116.868 18.8208C117.256 18.1551 117.45 17.3679 117.45 16.4594L118.366 16.5947H112.873V13.2034H121.788V15.8873C121.788 17.7598 121.393 19.3687 120.602 20.7141C119.812 22.0526 118.723 23.0859 117.336 23.8141C115.949 24.5353 114.361 24.896 112.572 24.896C110.574 24.896 108.82 24.4556 107.308 23.5748C105.796 22.6871 104.617 21.4284 103.771 19.7987C102.932 18.162 102.512 16.2202 102.512 13.9732C102.512 12.2464 102.762 10.7068 103.261 9.35445C103.767 7.99517 104.475 6.84395 105.383 5.90078C106.292 4.95761 107.349 4.23983 108.556 3.74744C109.763 3.25505 111.07 3.00885 112.478 3.00885C113.685 3.00885 114.808 3.1857 115.848 3.53939C116.889 3.88614 117.811 4.37853 118.616 5.01656C119.427 5.65458 120.089 6.41398 120.602 7.29473C121.116 8.16855 121.445 9.13253 121.591 10.1867H117.013Z" fill="#06235B"/>
<path d="M125.381 24.6047V8.62626H129.678V11.4142H129.844C130.135 10.4224 130.624 9.67345 131.311 9.16719C131.998 8.654 132.788 8.3974 133.683 8.3974C133.905 8.3974 134.144 8.41127 134.401 8.43901C134.657 8.46675 134.883 8.50489 135.077 8.55344V12.4856C134.869 12.4232 134.581 12.3677 134.213 12.3192C133.846 12.2706 133.509 12.2464 133.204 12.2464C132.552 12.2464 131.97 12.3885 131.457 12.6729C130.95 12.9503 130.548 13.3386 130.25 13.838C129.959 14.3373 129.813 14.9129 129.813 15.5648V24.6047H125.381Z" fill="#06235B"/>
<path d="M144.135 24.9168C142.52 24.9168 141.122 24.5735 139.943 23.8869C138.771 23.1934 137.866 22.2294 137.228 20.995C136.59 19.7536 136.271 18.3146 136.271 16.6779C136.271 15.0273 136.59 13.5848 137.228 12.3504C137.866 11.109 138.771 10.1451 139.943 9.45848C141.122 8.76497 142.52 8.41821 144.135 8.41821C145.751 8.41821 147.145 8.76497 148.317 9.45848C149.496 10.1451 150.405 11.109 151.043 12.3504C151.681 13.5848 152 15.0273 152 16.6779C152 18.3146 151.681 19.7536 151.043 20.995C150.405 22.2294 149.496 23.1934 148.317 23.8869C147.145 24.5735 145.751 24.9168 144.135 24.9168ZM144.156 21.4839C144.891 21.4839 145.505 21.2758 145.998 20.8597C146.49 20.4367 146.861 19.8611 147.111 19.1329C147.367 18.4047 147.496 17.576 147.496 16.6467C147.496 15.7174 147.367 14.8886 147.111 14.1604C146.861 13.4323 146.49 12.8567 145.998 12.4336C145.505 12.0106 144.891 11.7991 144.156 11.7991C143.414 11.7991 142.79 12.0106 142.284 12.4336C141.784 12.8567 141.407 13.4323 141.15 14.1604C140.9 14.8886 140.775 15.7174 140.775 16.6467C140.775 17.576 140.9 18.4047 141.15 19.1329C141.407 19.8611 141.784 20.4367 142.284 20.8597C142.79 21.2758 143.414 21.4839 144.156 21.4839Z" fill="#06235B"/>
<path d="M46.59 31.5497C46.5308 31.358 46.4491 31.1863 46.345 31.0348C46.2432 30.8809 46.1201 30.7495 45.9756 30.6406C45.8336 30.5317 45.6702 30.45 45.4856 30.3956C45.3009 30.3388 45.0997 30.3104 44.8819 30.3104C44.4913 30.3104 44.1433 30.4086 43.8379 30.6051C43.5325 30.8016 43.2922 31.0904 43.117 31.4716C42.9442 31.8504 42.8577 32.312 42.8577 32.8565C42.8577 33.4058 42.9442 33.871 43.117 34.2521C43.2898 34.6333 43.5301 34.9233 43.8379 35.1222C44.1456 35.3187 44.5031 35.4169 44.9103 35.4169C45.2796 35.4169 45.5992 35.3459 45.8691 35.2038C46.1414 35.0618 46.3509 34.8606 46.4977 34.6001C46.6444 34.3374 46.7178 34.0296 46.7178 33.6768L47.0161 33.723H45.0417V32.6932H47.9927V33.5668C47.9927 34.1894 47.8601 34.728 47.595 35.1825C47.3298 35.6371 46.9652 35.9875 46.5012 36.2337C46.0372 36.4775 45.5045 36.5994 44.9032 36.5994C44.2332 36.5994 43.6449 36.4491 43.1383 36.1484C42.634 35.8454 42.2398 35.4157 41.9558 34.8594C41.674 34.3007 41.5332 33.6378 41.5332 32.8707C41.5332 32.2836 41.616 31.7592 41.7817 31.2976C41.9498 30.8359 42.1842 30.4441 42.4849 30.1222C42.7855 29.7978 43.1383 29.5516 43.5431 29.3835C43.9479 29.2131 44.3883 29.1278 44.8641 29.1278C45.2666 29.1278 45.6418 29.187 45.9898 29.3054C46.3379 29.4214 46.6468 29.5871 46.9167 29.8026C47.1889 30.018 47.4127 30.2737 47.5879 30.5696C47.763 30.8655 47.8779 31.1922 47.9323 31.5497H46.59ZM49.9667 36.5V29.2273H52.6939C53.2526 29.2273 53.7214 29.3243 54.1002 29.5185C54.4813 29.7126 54.769 29.9848 54.9631 30.3352C55.1596 30.6832 55.2579 31.0893 55.2579 31.5533C55.2579 32.0196 55.1584 32.4245 54.9596 32.7678C54.7631 33.1087 54.473 33.3726 54.0895 33.5597C53.706 33.7443 53.2349 33.8366 52.6762 33.8366H50.7337V32.7429H52.4986C52.8253 32.7429 53.0928 32.6979 53.3012 32.608C53.5095 32.5156 53.6634 32.3819 53.7628 32.2067C53.8646 32.0291 53.9155 31.8113 53.9155 31.5533C53.9155 31.2952 53.8646 31.075 53.7628 30.8928C53.661 30.7081 53.506 30.5684 53.2976 30.4737C53.0893 30.3767 52.8206 30.3281 52.4915 30.3281H51.2841V36.5H49.9667ZM53.7238 33.2045L55.5242 36.5H54.054L52.2855 33.2045H53.7238ZM63.6691 32.8636C63.6691 33.6473 63.5224 34.3184 63.2288 34.8771C62.9376 35.4335 62.5399 35.8596 62.0356 36.1555C61.5337 36.4515 60.9644 36.5994 60.3275 36.5994C59.6907 36.5994 59.1201 36.4515 58.6159 36.1555C58.114 35.8572 57.7163 35.4299 57.4227 34.8736C57.1315 34.3149 56.9859 33.6449 56.9859 32.8636C56.9859 32.08 57.1315 31.41 57.4227 30.8537C57.7163 30.295 58.114 29.8677 58.6159 29.5717C59.1201 29.2758 59.6907 29.1278 60.3275 29.1278C60.9644 29.1278 61.5337 29.2758 62.0356 29.5717C62.5399 29.8677 62.9376 30.295 63.2288 30.8537C63.5224 31.41 63.6691 32.08 63.6691 32.8636ZM62.3446 32.8636C62.3446 32.312 62.2582 31.8468 62.0853 31.468C61.9149 31.0869 61.6781 30.7992 61.3751 30.6051C61.0721 30.4086 60.7229 30.3104 60.3275 30.3104C59.9322 30.3104 59.583 30.4086 59.2799 30.6051C58.9769 30.7992 58.739 31.0869 58.5662 31.468C58.3957 31.8468 58.3105 32.312 58.3105 32.8636C58.3105 33.4152 58.3957 33.8816 58.5662 34.2628C58.739 34.6416 58.9769 34.9292 59.2799 35.1257C59.583 35.3198 59.9322 35.4169 60.3275 35.4169C60.7229 35.4169 61.0721 35.3198 61.3751 35.1257C61.6781 34.9292 61.9149 34.6416 62.0853 34.2628C62.2582 33.8816 62.3446 33.4152 62.3446 32.8636ZM66.9597 36.5L64.9071 29.2273H66.324L67.6344 34.5717H67.7019L69.101 29.2273H70.3901L71.7928 34.5753H71.8567L73.1671 29.2273H74.584L72.5314 36.5H71.2317L69.7757 31.397H69.7189L68.2594 36.5H66.9597ZM78.8808 29.2273H80.3688L82.1479 32.4446H82.2189L83.998 29.2273H85.4859L82.8403 33.7869V36.5H81.5264V33.7869L78.8808 29.2273ZM93.2074 32.8636C93.2074 33.6473 93.0606 34.3184 92.7671 34.8771C92.4759 35.4335 92.0782 35.8596 91.5739 36.1555C91.072 36.4515 90.5026 36.5994 89.8658 36.5994C89.229 36.5994 88.6584 36.4515 88.1542 36.1555C87.6523 35.8572 87.2545 35.4299 86.961 34.8736C86.6698 34.3149 86.5242 33.6449 86.5242 32.8636C86.5242 32.08 86.6698 31.41 86.961 30.8537C87.2545 30.295 87.6523 29.8677 88.1542 29.5717C88.6584 29.2758 89.229 29.1278 89.8658 29.1278C90.5026 29.1278 91.072 29.2758 91.5739 29.5717C92.0782 29.8677 92.4759 30.295 92.7671 30.8537C93.0606 31.41 93.2074 32.08 93.2074 32.8636ZM91.8829 32.8636C91.8829 32.312 91.7964 31.8468 91.6236 31.468C91.4532 31.0869 91.2164 30.7992 90.9134 30.6051C90.6104 30.4086 90.2612 30.3104 89.8658 30.3104C89.4704 30.3104 89.1213 30.4086 88.8182 30.6051C88.5152 30.7992 88.2773 31.0869 88.1044 31.468C87.934 31.8468 87.8488 32.312 87.8488 32.8636C87.8488 33.4152 87.934 33.8816 88.1044 34.2628C88.2773 34.6416 88.5152 34.9292 88.8182 35.1257C89.1213 35.3198 89.4704 35.4169 89.8658 35.4169C90.2612 35.4169 90.6104 35.3198 90.9134 35.1257C91.2164 34.9292 91.4532 34.6416 91.6236 34.2628C91.7964 33.8816 91.8829 33.4152 91.8829 32.8636ZM99.7375 29.2273H101.055V33.9787C101.055 34.4995 100.931 34.9576 100.686 35.353C100.442 35.7483 100.098 36.0573 99.6558 36.2798C99.2131 36.5 98.6958 36.6101 98.104 36.6101C97.5098 36.6101 96.9913 36.5 96.5486 36.2798C96.1059 36.0573 95.7626 35.7483 95.5188 35.353C95.2749 34.9576 95.153 34.4995 95.153 33.9787V29.2273H96.4705V33.8686C96.4705 34.1716 96.5367 34.4415 96.6693 34.6783C96.8043 34.915 96.9937 35.1009 97.2375 35.2358C97.4813 35.3684 97.7702 35.4347 98.104 35.4347C98.4378 35.4347 98.7266 35.3684 98.9705 35.2358C99.2167 35.1009 99.4061 34.915 99.5386 34.6783C99.6712 34.4415 99.7375 34.1716 99.7375 33.8686V29.2273ZM103.187 36.5V29.2273H105.915C106.473 29.2273 106.942 29.3243 107.321 29.5185C107.701 29.7126 107.99 29.9848 108.184 30.3352C108.38 30.6832 108.479 31.0893 108.479 31.5533C108.479 32.0196 108.379 32.4245 108.18 32.7678C107.984 33.1087 107.694 33.3726 107.31 33.5597C106.926 33.7443 106.456 33.8366 105.897 33.8366H103.955V32.7429H105.719C106.046 32.7429 106.314 32.6979 106.522 32.608C106.73 32.5156 106.884 32.3819 106.984 32.2067C107.085 32.0291 107.136 31.8113 107.136 31.5533C107.136 31.2952 107.085 31.075 106.984 30.8928C106.882 30.7081 106.727 30.5684 106.518 30.4737C106.31 30.3767 106.041 30.3281 105.712 30.3281H104.505V36.5H103.187ZM106.945 33.2045L108.745 36.5H107.275L105.506 33.2045H106.945ZM117.524 31.2266C117.491 30.9164 117.351 30.675 117.104 30.5021C116.86 30.3293 116.544 30.2429 116.154 30.2429C115.879 30.2429 115.643 30.2843 115.447 30.3672C115.25 30.45 115.1 30.5625 114.996 30.7045C114.892 30.8466 114.838 31.0088 114.836 31.1911C114.836 31.3426 114.87 31.474 114.939 31.5852C115.01 31.6965 115.105 31.7912 115.227 31.8693C115.347 31.9451 115.48 32.009 115.628 32.0611C115.775 32.1132 115.923 32.157 116.072 32.1925L116.754 32.3629C117.028 32.4268 117.292 32.5133 117.546 32.6222C117.8 32.7311 118.03 32.8684 118.231 33.0341C118.435 33.1998 118.596 33.3999 118.714 33.6342C118.831 33.8686 118.891 34.1432 118.891 34.4581C118.891 34.8842 118.783 35.2595 118.565 35.5838C118.347 35.9058 118.032 36.1579 117.62 36.3402C117.211 36.5201 116.715 36.6101 116.132 36.6101C115.565 36.6101 115.075 36.5225 114.658 36.3473C114.243 36.1721 113.92 35.9164 113.685 35.5803C113.452 35.2441 113.327 34.8345 113.309 34.3516H114.604C114.623 34.6049 114.701 34.8156 114.84 34.9837C114.977 35.1518 115.156 35.2772 115.376 35.3601C115.598 35.4429 115.847 35.4844 116.122 35.4844C116.408 35.4844 116.659 35.4418 116.874 35.3565C117.092 35.2689 117.263 35.1482 117.386 34.9943C117.509 34.8381 117.572 34.6558 117.574 34.4474C117.572 34.258 117.516 34.1018 117.407 33.9787C117.298 33.8532 117.145 33.7491 116.949 33.6662C116.755 33.581 116.528 33.5052 116.267 33.4389L115.44 33.2259C114.841 33.072 114.367 32.8388 114.019 32.5263C113.674 32.2114 113.501 31.7936 113.501 31.2727C113.501 30.8442 113.617 30.469 113.849 30.147C114.083 29.825 114.402 29.5753 114.804 29.3977C115.207 29.2178 115.661 29.1278 116.171 29.1278C116.687 29.1278 117.14 29.2178 117.528 29.3977C117.918 29.5753 118.225 29.8227 118.448 30.1399C118.67 30.4548 118.785 30.817 118.792 31.2266H117.524ZM120.766 36.5V29.2273H122.083V32.5689H122.172L125.01 29.2273H126.618L123.806 32.4908L126.643 36.5H125.059L122.89 33.3821L122.083 34.3338V36.5H120.766ZM129.551 29.2273V36.5H128.234V29.2273H129.551ZM131.678 36.5V29.2273H132.995V35.3956H136.198V36.5H131.678ZM138.042 36.5V29.2273H139.359V35.3956H142.562V36.5H138.042ZM148.357 31.2266C148.325 30.9164 148.185 30.675 147.939 30.5021C147.695 30.3293 147.378 30.2429 146.988 30.2429C146.713 30.2429 146.477 30.2843 146.281 30.3672C146.084 30.45 145.933 30.5625 145.829 30.7045C145.726 30.8466 145.672 31.0088 145.67 31.1911C145.67 31.3426 145.704 31.474 145.773 31.5852C145.844 31.6965 145.939 31.7912 146.061 31.8693C146.181 31.9451 146.314 32.009 146.462 32.0611C146.609 32.1132 146.757 32.157 146.906 32.1925L147.588 32.3629C147.862 32.4268 148.126 32.5133 148.38 32.6222C148.634 32.7311 148.864 32.8684 149.064 33.0341C149.269 33.1998 149.43 33.3999 149.548 33.6342C149.665 33.8686 149.725 34.1432 149.725 34.4581C149.725 34.8842 149.617 35.2595 149.398 35.5838C149.18 35.9058 148.866 36.1579 148.454 36.3402C148.045 36.5201 147.549 36.6101 146.965 36.6101C146.399 36.6101 145.909 36.5225 145.492 36.3473C145.077 36.1721 144.754 35.9164 144.519 35.5803C144.287 35.2441 144.161 34.8345 144.143 34.3516H145.439C145.458 34.6049 145.536 34.8156 145.674 34.9837C145.811 35.1518 145.99 35.2772 146.21 35.3601C146.432 35.4429 146.681 35.4844 146.956 35.4844C147.242 35.4844 147.493 35.4418 147.708 35.3565C147.926 35.2689 148.096 35.1482 148.219 34.9943C148.342 34.8381 148.406 34.6558 148.408 34.4474C148.406 34.258 148.35 34.1018 148.241 33.9787C148.132 33.8532 147.979 33.7491 147.783 33.6662C147.589 33.581 147.362 33.5052 147.101 33.4389L146.273 33.2259C145.674 33.072 145.201 32.8388 144.853 32.5263C144.508 32.2114 144.335 31.7936 144.335 31.2727C144.335 30.8442 144.451 30.469 144.683 30.147C144.917 29.825 145.235 29.5753 145.637 29.3977C146.04 29.2178 146.495 29.1278 147.005 29.1278C147.521 29.1278 147.973 29.2178 148.361 29.3977C148.751 29.5753 149.059 29.8227 149.282 30.1399C149.504 30.4548 149.618 30.817 149.626 31.2266H148.357Z" fill="#545D70"/>
<path d="M0 19.5C0 9.83502 7.83502 2 17.5 2C27.165 2 35 9.83502 35 19.5C35 29.165 27.165 37 17.5 37C7.83502 37 0 29.165 0 19.5Z" fill="#6059F7"/>
<mask id="mask1_6512_31" style="mask-type:alpha" maskUnits="userSpaceOnUse" x="0" y="2" width="35" height="35">
<path d="M0 19.5C0 9.83502 7.83502 2 17.5 2C27.165 2 35 9.83502 35 19.5C35 29.165 27.165 37 17.5 37C7.83502 37 0 29.165 0 19.5Z" fill="#6059F7"/>
</mask>
<g mask="url(#mask1_6512_31)">
<path d="M13.4169 21.3158C15.161 21.9096 17.0646 20.9527 17.6687 19.1784C18.2729 17.404 17.3488 15.4843 15.6048 14.8904C13.8607 14.2966 11.9571 15.2535 11.353 17.0278C10.7488 18.8021 11.6729 20.7219 13.4169 21.3158Z" fill="white"/>
<path d="M17.2625 12.2647L16.9395 11.2034L17.3659 12.2262L17.2625 12.2647Z" fill="white"/>
<path d="M17.4945 12.6114L17.468 12.3401L17.3141 12.1257L17.2031 12.3296L17.223 12.5782L17.2448 12.8177L17.3964 12.9587L17.5108 12.8321L17.4945 12.6114ZM17.3174 12.458C17.3103 12.4354 17.3087 12.4114 17.3127 12.3879C17.3168 12.3645 17.3264 12.3423 17.3407 12.3233C17.3668 12.3999 17.3446 12.5072 17.3174 12.458ZM17.2745 12.7444C17.2679 12.7217 17.2666 12.6978 17.2707 12.6744C17.2747 12.6511 17.284 12.6289 17.2978 12.6097C17.324 12.6863 17.3017 12.7935 17.2745 12.7444ZM17.4003 12.6228C17.3932 12.6002 17.3916 12.5762 17.3956 12.5527C17.3997 12.5293 17.4093 12.5071 17.4235 12.4881C17.447 12.5589 17.4236 12.6658 17.4003 12.6228ZM17.392 12.811C17.3849 12.7886 17.3832 12.7648 17.3872 12.7415C17.3912 12.7182 17.4007 12.6962 17.4149 12.6774C17.4411 12.754 17.4189 12.8612 17.392 12.811Z" fill="white"/>
<path d="M17.3789 11.1093C17.3789 11.1093 15.2067 11.0611 12.3493 9.55026C12.3493 9.55026 9.98237 13.7099 8.05469 14.9222C8.05469 14.9222 9.4911 14.4443 10.5462 14.4409L10.5779 14.407L10.5917 14.3875C10.6065 14.3648 10.6293 14.3363 10.659 14.298C10.7176 14.2237 10.8043 14.1191 10.9154 14.0022C10.9719 13.9408 11.032 13.8807 11.0956 13.8218C11.1629 13.7601 11.2332 13.6934 11.3098 13.6288C11.3865 13.5643 11.4667 13.4997 11.5494 13.4348C11.6321 13.3699 11.72 13.3104 11.8056 13.2476C11.8911 13.1849 11.984 13.1319 12.0709 13.0757L12.3352 12.9239L12.5886 12.7938C12.6686 12.751 12.7491 12.7204 12.8196 12.6876C12.8902 12.6548 12.96 12.6242 13.0184 12.6029L13.1726 12.5442L13.309 12.4928L13.1772 12.5518L13.0253 12.621C12.9662 12.6444 12.9038 12.6812 12.8336 12.7165C12.7633 12.7518 12.6902 12.7885 12.6092 12.8347L12.3663 12.9792L12.1168 13.136C12.0331 13.197 11.9476 13.2561 11.8653 13.3199C11.783 13.3838 11.7024 13.4494 11.6243 13.5183C11.5462 13.5872 11.4706 13.6521 11.4007 13.7214C11.3308 13.7907 11.2644 13.8563 11.2021 13.9209C11.1397 13.9855 11.0855 14.0504 11.0357 14.106C10.9345 14.2251 10.8585 14.3297 10.8063 14.4026C10.7806 14.4398 10.7614 14.4683 10.7501 14.4874L10.7302 14.5181L10.705 14.5676C10.8204 14.6802 10.9033 14.8228 10.9447 14.9801C10.9861 15.1375 10.9845 15.3037 10.9402 15.4611C10.9402 15.4611 13.1051 13.3916 16.0202 13.7701C16.0202 13.7701 15.956 12.1092 17.3789 11.1093Z" fill="white"/>
<path d="M8.63331 22.2967C8.68075 22.3841 9.19876 22.4191 9.2848 22.4351C9.85668 22.5396 10.4341 22.612 11.0146 22.6518C12.6853 22.7698 14.4184 22.6419 16.0044 22.0421C17.3832 21.5204 18.41 20.9091 19.602 20.0603C21.0807 19.0045 22.5458 17.4026 23.9433 16.3409C22.239 20.7001 19.9386 24.8 17.1102 28.5192C14.515 31.9121 11.4237 34.9681 7.80094 37.2157C6.26898 38.1724 4.64485 38.9663 2.95466 39.5846C2.95466 39.5846 8.68692 35.9013 12.6982 29.6303C12.6982 29.6303 5.64704 36.0532 2.67969 36.3724C2.67969 36.3724 6.98661 34.2127 8.64848 28.0095C8.64848 28.0095 15.1942 27.0037 17.2554 23.8219C17.2554 23.8219 14.7093 25.4933 9.85152 24.5113L8.63331 22.2967Z" fill="white"/>
<path d="M18.8711 18.5773L19.2316 17.0091L27.3549 11.2098L26.1654 10.91L28.643 10.3019L27.5739 12.6986L27.497 11.4553L20.419 18.5291L18.8711 18.5773Z" fill="white"/>
</g>
</g>
</g>
<defs>
<clipPath id="clip0_6512_31">
<rect width="153" height="38" fill="white" transform="translate(0 0.5)"/>
</clipPath>
</defs>
</svg>
