<svg width="94" height="91" viewBox="0 0 94 91" fill="none" xmlns="http://www.w3.org/2000/svg">
<g clip-path="url(#clip0_6512_4810)">
<path d="M66.8667 23.0728H1.13333C0.50745 23.0728 0 23.5803 0 24.2061V69.5395C0 70.1654 0.50745 70.6728 1.13333 70.6728H21.5979C21.6319 71.0502 21.6875 71.4219 21.7543 71.7903L15.538 79.1989C15.1354 79.6781 15.1976 80.393 15.6768 80.7956C15.8118 80.9091 15.9716 80.9894 16.1432 81.0303L22.9863 82.6646L25.7845 89.1246C26.0332 89.6989 26.7005 89.963 27.2748 89.7142C27.4366 89.6442 27.5797 89.5374 27.693 89.4023L33.8991 82.0061C33.9331 82.0061 33.966 82.0061 34 82.0061C34.034 82.0061 34.0669 82.0061 34.1009 82.0061L40.307 89.4023C40.709 89.882 41.4239 89.9449 41.9036 89.5428C42.0386 89.4296 42.1454 89.2864 42.2155 89.1246L45.0137 82.6646L51.8568 81.0303C52.4657 80.8853 52.8418 80.2741 52.6967 79.6652C52.6558 79.4937 52.5755 79.3339 52.462 79.1989L46.2457 71.7903C46.3125 71.4219 46.3681 71.0502 46.4021 70.6728H66.8667C67.4926 70.6728 68 70.1654 68 69.5395V24.2061C68 23.5801 67.4926 23.0728 66.8667 23.0728ZM27.1354 86.5395L24.8404 81.2468C24.6986 80.9196 24.411 80.6782 24.0641 80.5951L18.4541 79.2544L22.5227 74.4049C22.5443 74.4547 22.5726 74.5001 22.5941 74.5499C22.7415 74.8899 22.9013 75.2129 23.0781 75.5337C23.1506 75.6674 23.2277 75.7989 23.3047 75.9292C23.4604 76.1883 23.625 76.4422 23.7989 76.6908C23.9201 76.8642 24.0471 77.0308 24.1774 77.2008C24.3293 77.3935 24.4857 77.5816 24.65 77.7675C24.8143 77.9533 25.0059 78.1585 25.1951 78.3466C25.3345 78.486 25.4785 78.6209 25.6258 78.7535C25.7482 78.8668 25.8581 78.9858 25.9862 79.0935C26.1143 79.2011 26.2344 79.2737 26.3568 79.3689C26.4123 79.4119 26.4599 79.4618 26.5166 79.5037C26.6186 79.5808 26.7263 79.6477 26.8305 79.7213C26.9937 79.8347 27.1547 79.9571 27.3235 80.0613C27.6454 80.2676 27.9775 80.4557 28.3141 80.628C28.4433 80.6937 28.5747 80.7538 28.7062 80.815C29.0084 80.9571 29.3125 81.0863 29.6185 81.2026C29.7069 81.2355 29.7942 81.2729 29.8826 81.3035C30.3119 81.4543 30.7493 81.5811 31.1927 81.6831L31.2052 81.6865L27.1354 86.5395ZM36.1284 79.4992C35.6086 79.609 35.0812 79.6784 34.5508 79.7066H34.5361C34.357 79.7157 34.1779 79.7281 33.9977 79.7281C33.8175 79.7281 33.6385 79.7157 33.4594 79.7066H33.4447C32.9154 79.6783 32.3891 79.6093 31.8705 79.5003L31.7753 79.4811C31.5735 79.4369 31.3741 79.3825 31.1769 79.3258C31.0941 79.302 31.0103 79.2805 30.9287 79.2544C30.787 79.2102 30.6476 79.1581 30.5082 79.1082C30.3688 79.0583 30.2362 79.0096 30.1025 78.9541C30.0197 78.9189 29.9381 78.8815 29.8565 78.8407C29.6707 78.7569 29.4859 78.6719 29.3057 78.5778L29.2151 78.5279C28.7479 78.278 28.3008 77.9923 27.8777 77.6734C27.642 77.4977 27.4244 77.3039 27.2102 77.1124C26.9569 76.8864 26.7151 76.6477 26.486 76.3973C26.3953 76.2998 26.2979 76.2069 26.2117 76.106C25.8953 75.7337 25.6065 75.3386 25.3481 74.9239C25.3096 74.8627 25.2767 74.7981 25.2348 74.7347C24.9938 74.3321 24.7817 73.9127 24.6001 73.4801C24.5843 73.4415 24.5661 73.403 24.5514 73.3667C24.3507 72.8709 24.1892 72.3602 24.0686 71.839C24.0686 71.8186 24.0527 71.8027 24.0471 71.7823C23.8825 71.0461 23.7996 70.2938 23.8 69.5395C23.7966 63.9061 28.3605 59.3368 33.9938 59.3332C39.6271 59.3298 44.1965 63.8938 44.2 69.527C44.2004 70.29 44.1153 71.0506 43.9461 71.7947C43.9405 71.8139 43.9291 71.8309 43.9246 71.8502C43.8042 72.3708 43.6431 72.8812 43.4429 73.3768C43.4271 73.4165 43.4089 73.4561 43.3919 73.4901C43.2109 73.9201 42.9995 74.3367 42.7595 74.7368C42.7221 74.8003 42.6881 74.8671 42.6462 74.9306C42.3878 75.3447 42.0995 75.7394 41.7837 76.1115C41.6987 76.2113 41.6024 76.3019 41.5129 76.3994C41.2807 76.6521 41.0359 76.8931 40.7796 77.1213C40.5643 77.3129 40.3501 77.5067 40.1155 77.6812C39.8809 77.8557 39.6712 78.0031 39.4423 78.1493L39.4287 78.1572C39.2235 78.2875 39.0139 78.4077 38.8008 78.521C38.7589 78.5437 38.7181 78.5675 38.6761 78.589C38.505 78.6785 38.3361 78.759 38.1559 78.8372C38.0653 78.878 37.9757 78.9199 37.8839 78.9573C37.757 79.0106 37.6278 79.0571 37.4986 79.1035C37.3694 79.15 37.2096 79.2101 37.0623 79.2554C36.9841 79.2803 36.9047 79.3019 36.8254 79.3245C36.6248 79.3812 36.4231 79.4379 36.2191 79.4809L36.1284 79.4992ZM49.5459 79.251L43.9359 80.5917C43.589 80.6748 43.3014 80.9162 43.1596 81.2434L40.8646 86.5395L36.7948 81.6899H36.805C37.2501 81.5882 37.6891 81.4611 38.1197 81.3091C38.2047 81.2797 38.2863 81.2445 38.3713 81.2139C38.6875 81.0938 38.9991 80.9623 39.3051 80.8161C39.4298 80.7583 39.5545 80.7028 39.6769 80.6393C40.0169 80.4625 40.3569 80.271 40.6833 80.0613C40.8408 79.9616 40.9915 79.8494 41.1445 79.7417C41.2579 79.6635 41.3712 79.5921 41.4845 79.5094C41.5446 79.4641 41.5979 79.4108 41.6568 79.3643C41.7701 79.2714 41.9016 79.1932 42.0172 79.0957C42.1328 78.9983 42.2507 78.8691 42.3708 78.7625C42.5204 78.6265 42.6677 78.4894 42.8105 78.3477C42.9971 78.1612 43.1777 77.9692 43.3523 77.772C43.5166 77.5861 43.673 77.398 43.826 77.2053C43.9563 77.0387 44.0833 76.8653 44.2045 76.6953C44.3791 76.4483 44.5445 76.1944 44.6975 75.936C44.7769 75.8045 44.8539 75.6719 44.9242 75.5371C45.1003 75.2175 45.2608 74.8906 45.4059 74.5567C45.4263 74.4989 45.4557 74.4525 45.4773 74.4015L49.5459 79.251ZM65.7333 68.4061H46.4089C45.7939 61.5523 39.7391 56.4947 32.8852 57.1098C26.8837 57.6484 22.1275 62.4046 21.5889 68.4061H2.26667V25.3395H65.7333V68.4061Z" fill="#807AF9"/>
<path d="M5.66653 27.6062C5.04065 27.6062 4.5332 28.1136 4.5332 28.7395V33.2728H6.79987V29.8728H10.1999V27.6062H5.66653Z" fill="white"/>
<path d="M62.3341 27.6062H57.8008V29.8728H61.2008V33.2728H63.4675V28.7395C63.4675 28.1135 62.96 27.6062 62.3341 27.6062Z" fill="white"/>
<path d="M61.2008 60.4729V63.8729H57.8008V66.1396H62.3341C62.96 66.1396 63.4675 65.6321 63.4675 65.0062V60.4729H61.2008Z" fill="white"/>
<path d="M6.79987 63.8729V60.4729H4.5332V65.0062C4.5332 65.6321 5.04065 66.1396 5.66653 66.1396H10.1999V63.8729H6.79987Z" fill="white"/>
<path d="M47.6004 35.5396H20.4004V37.8061H47.6004V35.5396Z" fill="white"/>
<path d="M54.3996 42.3394H13.5996V44.6061H54.3996V42.3394Z" fill="white"/>
<path d="M33.9997 61.6062C29.6182 61.6062 26.0664 65.158 26.0664 69.5395C26.0713 73.9188 29.6204 77.4679 33.9997 77.4728C38.3812 77.4728 41.933 73.921 41.933 69.5395C41.933 65.158 38.3812 61.6062 33.9997 61.6062ZM33.9997 75.2062C30.8702 75.2062 28.333 72.669 28.333 69.5395C28.3367 66.4115 30.8717 63.8765 33.9997 63.8728C37.1293 63.8728 39.6664 66.4099 39.6664 69.5395C39.6664 72.669 37.1293 75.2062 33.9997 75.2062Z" fill="#5751E1"/>
<path d="M94 13.8633C93.4937 14.2402 93.2405 14.6171 92.9873 14.7428C91.7215 15.2454 90.4557 15.7479 89.1899 16.2505C87.2911 16.8787 86.1519 18.1352 85.8987 20.1455C85.6456 21.7789 85.3924 23.4123 85.0127 25.0457C84.8861 25.5482 84.5063 26.3021 84.1266 26.4278C83.3671 26.5534 83.3671 25.6739 83.2405 25.1713C82.7342 23.6636 82.2278 22.0302 81.8481 20.5224C81.2152 18.3865 79.8228 17.2557 77.5443 17.2557C76.6582 17.2557 75.8987 17.13 75.0127 17.0044C74.5063 17.0044 74.2532 16.7531 74 16.5018C74.2532 16.2505 74.3797 15.8736 74.6329 15.7479C75.8987 15.2454 77.2911 14.7428 78.557 14.3658C79.8228 13.9889 80.7089 13.1094 80.962 11.8529C81.4684 9.84267 81.8481 7.83235 82.3544 5.94768C82.6076 5.31945 82.3544 4.43994 83.2405 4.43994C84.1266 4.43994 84 5.19381 84.1266 5.69639C84.5063 7.45542 84.8861 9.0888 85.3924 10.8478C86.0253 13.1094 86.5316 13.4863 88.9367 13.4863C90.2025 13.4863 91.5949 13.3607 92.8608 13.3607C92.9873 13.3607 93.3671 13.612 94 13.8633Z" fill="#434087"/>
<path d="M77 5.15162C76.7468 5.34009 76.6203 5.52856 76.4937 5.59138C75.8608 5.84267 75.2278 6.09396 74.5949 6.34525C73.6456 6.65936 73.0759 7.28759 72.9494 8.29275C72.8228 9.10944 72.6962 9.92613 72.5063 10.7428C72.443 10.9941 72.2532 11.371 72.0633 11.4338C71.6835 11.4967 71.6835 11.0569 71.6203 10.8056C71.3671 10.0518 71.1139 9.23508 70.9241 8.48121C70.6076 7.41323 69.9114 6.84783 68.7722 6.84783C68.3291 6.84783 67.9494 6.78501 67.5063 6.72219C67.2532 6.72219 67.1266 6.59654 67 6.4709C67.1266 6.34525 67.1899 6.15678 67.3165 6.09396C67.9494 5.84267 68.6456 5.59138 69.2785 5.40291C69.9114 5.21445 70.3544 4.77469 70.481 4.14646C70.7342 3.14131 70.9241 2.13615 71.1772 1.19381C71.3038 0.879698 71.1772 0.439941 71.6203 0.439941C72.0633 0.439941 72 0.816876 72.0633 1.06817C72.2532 1.94768 72.443 2.76437 72.6962 3.64389C73.0127 4.77469 73.2658 4.96316 74.4684 4.96316C75.1013 4.96316 75.7975 4.90033 76.4304 4.90033C76.4937 4.90033 76.6835 5.02598 77 5.15162Z" fill="#6663A9"/>
</g>
<defs>
<clipPath id="clip0_6512_4810">
<rect width="94" height="90" fill="white" transform="translate(0 0.439941)"/>
</clipPath>
</defs>
</svg>
