<svg width="94" height="90" viewBox="0 0 94 90" fill="none" xmlns="http://www.w3.org/2000/svg">
<g clip-path="url(#clip0_6512_4802)">
<path d="M77.4128 35.6295L59.7108 22.6768C59.4191 22.462 59.0468 22.3884 58.6953 22.4761L37.4299 27.87C36.7789 28.0359 36.3857 28.698 36.5516 29.3488C36.6211 29.6217 36.7833 29.8621 37.0103 30.0287L42.6412 34.1395L41.425 40.3056C40.7621 43.7474 46.2898 49.1961 53.739 50.6433C55.0456 50.8955 56.3732 51.0218 57.7038 51.0204C59.7438 51.0331 61.7725 50.7169 63.7119 50.0839C66.6916 49.0928 68.68 47.4386 69.0267 45.6691L70.243 39.5211L76.999 37.8124C77.6499 37.6465 78.0431 36.9844 77.8772 36.3335C77.8077 36.0607 77.6455 35.8203 77.4186 35.6537L77.4128 35.6295ZM66.6553 45.201C66.5154 45.9125 65.1959 47.0253 62.9519 47.7733C60.1185 48.6602 57.1079 48.8234 54.1952 48.2476C47.3541 46.9158 43.5352 42.2882 43.8575 40.768L44.8366 35.7269L54.7122 42.9754C54.9202 43.1287 55.1714 43.2117 55.4298 43.2126C55.5327 43.2133 55.6351 43.1989 55.7338 43.1701L67.6283 40.16L66.6553 45.201ZM55.7095 40.6767L40.5373 29.5848L58.7378 24.9754L73.8917 36.0611L55.7095 40.6767Z" fill="#807AF9"/>
<path d="M29.8113 51.2517C29.4391 51.4665 29.2079 51.8618 29.2031 52.2916V73.9887C29.2079 74.4184 29.4391 74.8136 29.8113 75.0286C29.9941 75.1417 30.2044 75.2026 30.4194 75.2049C30.6159 75.2067 30.81 75.1608 30.9849 75.0711L51.7212 64.2164C52.3157 63.9036 52.544 63.1682 52.2313 62.5739C52.1167 62.3562 51.9388 62.1784 51.7212 62.0638L31.0031 51.2092C30.6258 51.0142 30.174 51.0303 29.8113 51.2517ZM31.6357 54.2922L48.5348 63.1401L31.654 71.9818L31.6357 54.2922Z" fill="#5751E1"/>
<path d="M74.2628 81.9915H68.0176C68.1258 81.6513 68.1811 81.2964 68.1818 80.9395V52.8025C68.1818 52.1308 67.6372 51.5862 66.9655 51.5862C66.2938 51.5862 65.7493 52.1308 65.7493 52.8025V80.9394C65.7392 81.5304 65.252 82.0014 64.661 81.9913C64.6608 81.9913 64.6612 81.9913 64.661 81.9913H10.8923C10.3013 82.0015 9.81395 81.5307 9.80379 80.9397C9.80379 80.9395 9.80379 80.9398 9.80379 80.9397V44.1247C9.8138 43.5337 10.301 43.0627 10.892 43.0728H37.7765C38.4482 43.0728 38.9928 42.5282 38.9928 41.8565C38.9928 41.1848 38.4482 40.6402 37.7765 40.6402H10.8923C8.95922 40.6335 7.38475 42.1916 7.3714 44.1246V80.9392C7.37212 81.2963 7.42742 81.651 7.53555 81.9912H1.29048C0.618782 81.9912 0.0742188 82.5358 0.0742188 83.2075V83.5115C0.0742188 86.248 2.22693 89.2885 5.11535 89.2885H70.4378C73.3263 89.2885 75.479 86.248 75.479 83.5115V83.2075C75.479 82.5361 74.9344 81.9915 74.2628 81.9915ZM70.4378 86.8563H5.11535C4.06338 86.8563 2.99312 85.7374 2.63433 84.4239H72.9189C72.5601 85.7374 71.4898 86.8563 70.4378 86.8563Z" fill="white"/>
<path d="M94 13.8633C93.4937 14.2402 93.2405 14.6171 92.9873 14.7428C91.7215 15.2454 90.4557 15.7479 89.1899 16.2505C87.2911 16.8787 86.1519 18.1352 85.8987 20.1455C85.6456 21.7789 85.3924 23.4123 85.0127 25.0457C84.8861 25.5482 84.5063 26.3021 84.1266 26.4278C83.3671 26.5534 83.3671 25.6739 83.2405 25.1713C82.7342 23.6636 82.2278 22.0302 81.8481 20.5224C81.2152 18.3865 79.8228 17.2557 77.5443 17.2557C76.6582 17.2557 75.8987 17.13 75.0127 17.0044C74.5063 17.0044 74.2532 16.7531 74 16.5018C74.2532 16.2505 74.3797 15.8736 74.6329 15.7479C75.8987 15.2454 77.2911 14.7428 78.557 14.3658C79.8228 13.9889 80.7089 13.1094 80.962 11.8529C81.4684 9.84267 81.8481 7.83235 82.3544 5.94768C82.6076 5.31945 82.3544 4.43994 83.2405 4.43994C84.1266 4.43994 84 5.19381 84.1266 5.69639C84.5063 7.45542 84.8861 9.0888 85.3924 10.8478C86.0253 13.1094 86.5316 13.4863 88.9367 13.4863C90.2025 13.4863 91.5949 13.3607 92.8608 13.3607C92.9873 13.3607 93.3671 13.612 94 13.8633Z" fill="#434087"/>
<path d="M77 5.15162C76.7468 5.34009 76.6203 5.52856 76.4937 5.59138C75.8608 5.84267 75.2278 6.09396 74.5949 6.34525C73.6456 6.65936 73.0759 7.28759 72.9494 8.29275C72.8228 9.10944 72.6962 9.92613 72.5063 10.7428C72.443 10.9941 72.2532 11.371 72.0633 11.4338C71.6835 11.4967 71.6835 11.0569 71.6203 10.8056C71.3671 10.0518 71.1139 9.23508 70.9241 8.48121C70.6076 7.41323 69.9114 6.84783 68.7722 6.84783C68.3291 6.84783 67.9494 6.78501 67.5063 6.72219C67.2532 6.72219 67.1266 6.59654 67 6.4709C67.1266 6.34525 67.1899 6.15678 67.3165 6.09396C67.9494 5.84267 68.6456 5.59138 69.2785 5.40291C69.9114 5.21445 70.3544 4.77469 70.481 4.14646C70.7342 3.14131 70.9241 2.13615 71.1772 1.19381C71.3038 0.879698 71.1772 0.439941 71.6203 0.439941C72.0633 0.439941 72 0.816876 72.0633 1.06817C72.2532 1.94768 72.443 2.76437 72.6962 3.64389C73.0127 4.77469 73.2658 4.96316 74.4684 4.96316C75.1013 4.96316 75.7975 4.90033 76.4304 4.90033C76.4937 4.90033 76.6835 5.02598 77 5.15162Z" fill="#6663A9"/>
</g>
<defs>
<clipPath id="clip0_6512_4802">
<rect width="94" height="89" fill="white" transform="translate(0 0.439941)"/>
</clipPath>
</defs>
</svg>
