<svg width="94" height="94" viewBox="0 0 94 94" fill="none" xmlns="http://www.w3.org/2000/svg">
<g clip-path="url(#clip0_6512_4780)">
<path d="M20.9844 45.4945C20.303 45.4945 19.75 44.9415 19.75 44.2601V39.7892C19.75 39.4016 19.9302 39.0387 20.2388 38.8066C21.4979 37.8537 22.2188 36.4218 22.2188 34.8788V31.1757C22.2188 28.4527 20.0043 26.2382 17.2812 26.2382C14.5582 26.2382 12.3438 28.4527 12.3438 31.1757V34.8788C12.3438 36.4218 13.0646 37.8537 14.3237 38.8066C14.6323 39.0387 14.8125 39.4041 14.8125 39.7917V44.2626C14.8125 44.9439 14.2595 45.4969 13.5781 45.4969C12.8968 45.4969 12.3438 44.9415 12.3438 44.2601V40.3718C10.7662 38.9622 9.875 36.9921 9.875 34.8788V31.1757C9.875 27.0924 13.1979 23.7695 17.2812 23.7695C21.3646 23.7695 24.6875 27.0924 24.6875 31.1757V34.8788C24.6875 36.9921 23.7963 38.9597 22.2188 40.3718V44.2601C22.2188 44.9415 21.6658 45.4945 20.9844 45.4945Z" fill="white"/>
<path d="M18.5233 42.1617C17.9506 42.1617 17.4371 41.7592 17.3161 41.1766C17.1803 40.5076 17.6099 39.8558 18.2789 39.7201C20.56 39.2485 22.2191 37.2143 22.2191 34.8788C22.2191 34.1975 22.772 33.6445 23.4534 33.6445C24.1348 33.6445 24.6878 34.1975 24.6878 34.8788C24.6878 38.3795 22.1993 41.4309 18.7727 42.1345C18.6887 42.1518 18.6073 42.1617 18.5233 42.1617Z" fill="white"/>
<path d="M25.6103 47.43C25.4474 47.43 25.282 47.3979 25.124 47.3287L20.4975 45.3414C19.8705 45.0723 19.5816 44.3465 19.8507 43.7194C20.1173 43.0899 20.8432 42.806 21.4702 43.0726L26.0967 45.06C26.7237 45.3291 27.0126 46.0549 26.7435 46.6819C26.5435 47.151 26.0868 47.43 25.6103 47.43Z" fill="white"/>
<path d="M9.875 62.3732C9.70466 62.3732 9.52938 62.3386 9.36397 62.2621L4.63878 60.1143C3.32047 59.5119 2.46875 58.1887 2.46875 56.742V53.3203C2.46875 49.8591 4.51781 46.7485 7.68769 45.3956L13.0868 43.0528C13.7188 42.7812 14.4397 43.0676 14.7113 43.6922C14.9804 44.3168 14.694 45.0451 14.0694 45.3166L8.66531 47.6619C6.399 48.6321 4.9375 50.8516 4.9375 53.3203V56.742C4.9375 57.2234 5.22141 57.6678 5.66084 57.8677L10.386 60.0155C11.0057 60.297 11.2797 61.0302 10.9983 61.6499C10.7909 62.1041 10.3416 62.3732 9.875 62.3732Z" fill="white"/>
<path d="M22.0682 33.4223C19.6093 33.4223 17.259 32.5755 15.2717 30.9733C14.7434 30.5462 14.6594 29.771 15.0841 29.2402C15.5161 28.7094 16.2938 28.628 16.8196 29.0551C18.4045 30.3314 20.2857 31.0202 22.2138 30.9535C22.0953 28.3317 19.9277 26.2382 17.2812 26.2382C14.5582 26.2382 12.3438 28.4527 12.3438 31.1757V32.0892C12.3438 32.7705 11.7907 33.3235 11.1094 33.3235C10.428 33.3235 9.875 32.773 9.875 32.0892V31.1757C9.875 27.0924 13.1979 23.7695 17.2812 23.7695C21.3646 23.7695 24.6875 27.0924 24.6875 31.1757V32.0398C24.6875 32.6471 24.2456 33.1631 23.6482 33.2593C23.0779 33.3507 22.5841 33.4223 22.0682 33.4223Z" fill="white"/>
<path d="M65.4219 45.4943C64.7405 45.4943 64.1875 44.9413 64.1875 44.2599V39.789C64.1875 39.4014 64.3677 39.0385 64.6763 38.8064C65.9354 37.8535 66.6562 36.4216 66.6562 34.8786V31.1755C66.6562 28.4525 64.4418 26.238 61.7188 26.238C58.9957 26.238 56.7812 28.4525 56.7812 31.1755V34.8786C56.7812 36.4216 57.5021 37.8535 58.7612 38.8064C59.0698 39.0385 59.25 39.4039 59.25 39.7915V44.2624C59.25 44.9437 58.697 45.4967 58.0156 45.4967C57.3343 45.4967 56.7812 44.9437 56.7812 44.2624V40.3741C55.2037 38.9644 54.3125 36.9944 54.3125 34.8811V31.178C54.3125 27.0947 57.6354 23.7717 61.7188 23.7717C65.8021 23.7717 69.125 27.0947 69.125 31.178V34.8811C69.125 36.9944 68.2338 38.962 66.6562 40.3741V44.2624C66.6562 44.9413 66.1032 45.4943 65.4219 45.4943Z" fill="white"/>
<path d="M62.9608 42.1617C62.3881 42.1617 61.8746 41.7592 61.7536 41.1766C61.6178 40.5076 62.0474 39.8558 62.7164 39.7201C64.9975 39.2485 66.6565 37.2143 66.6565 34.8788C66.6565 34.1975 67.2096 33.6445 67.8909 33.6445C68.5723 33.6445 69.1253 34.1975 69.1253 34.8788C69.1253 38.3795 66.6368 41.4309 63.2102 42.1345C63.1262 42.1518 63.0448 42.1617 62.9608 42.1617Z" fill="white"/>
<path d="M53.7514 47.2743C53.2749 47.2743 52.8182 46.9954 52.6182 46.5263C52.3491 45.9017 52.638 45.1734 53.2651 44.9043L57.5286 43.0725C58.1507 42.8084 58.879 43.0898 59.1481 43.7193C59.4172 44.3439 59.1283 45.0722 58.5013 45.3413L54.2377 47.1731C54.0797 47.2422 53.9168 47.2743 53.7514 47.2743Z" fill="white"/>
<path d="M69.1249 62.3731C68.6583 62.3731 68.209 62.104 68.0016 61.6498C67.7202 61.0301 67.9942 60.2969 68.6139 60.0154L73.3391 57.8676C73.7785 57.6677 74.0624 57.2258 74.0624 56.7419V53.3202C74.0624 50.8515 72.6009 48.632 70.342 47.6668L64.9305 45.3165C64.3059 45.045 64.0195 44.3191 64.2886 43.6921C64.5602 43.065 65.2761 42.7786 65.9131 43.0527L71.3172 45.398C74.4821 46.7484 76.5311 49.859 76.5311 53.3202V56.7419C76.5311 58.1886 75.6794 59.5118 74.3611 60.1142L69.6359 62.262C69.4705 62.3361 69.2952 62.3731 69.1249 62.3731Z" fill="white"/>
<path d="M42.7341 29.734C39.2235 29.734 35.5698 28.4971 33.5553 26.6851C33.0467 26.2283 33.0047 25.4482 33.4614 24.9421C33.9182 24.436 34.7057 24.3941 35.2044 24.8508C37.6386 27.0381 43.4697 28.1811 46.81 26.3888C47.4099 26.0654 48.1604 26.2901 48.4813 26.8924C48.8047 27.4948 48.5776 28.2404 47.9777 28.5638C46.4545 29.376 44.6152 29.734 42.7341 29.734Z" fill="white"/>
<path d="M39.4828 52.1601C35.3872 52.1601 33.2517 48.9655 32.6938 47.2744C32.479 46.6252 32.832 45.929 33.4788 45.7142C34.1256 45.5019 34.8193 45.8524 35.0341 46.4943C35.086 46.6424 36.1796 49.6889 39.4828 49.6889C42.8132 49.6889 43.9858 46.5486 44.0377 46.4153C44.2673 45.7759 44.9832 45.4426 45.6127 45.6697C46.2521 45.8969 46.5904 46.5955 46.3657 47.2374C46.2941 47.4398 44.5882 52.1601 39.4828 52.1601Z" fill="white"/>
<path d="M62.9531 62.035C62.2718 62.035 61.7188 61.482 61.7188 60.8006V60.1118C61.7188 56.4507 59.4105 53.1771 55.9764 51.9699L45.6793 48.3161C44.198 47.8002 43.2031 46.3979 43.2031 44.8303V41.7937C43.2031 41.1123 43.7561 40.5593 44.4375 40.5593C45.1189 40.5593 45.6719 41.1123 45.6719 41.7937V44.8303C45.6719 45.3487 46.0052 45.8128 46.4989 45.9856L56.7985 49.6419C61.2176 51.1947 64.1875 55.4039 64.1875 60.1118V60.8031C64.1875 61.4845 63.6345 62.035 62.9531 62.035Z" fill="white"/>
<path d="M16.0469 62.035C15.3655 62.035 14.8125 61.482 14.8125 60.8006V60.134C14.8125 59.3638 14.894 58.5911 15.0544 57.8282C15.8494 54.0683 18.5996 50.933 22.2237 49.6394L32.4986 46.035C32.9948 45.8622 33.3281 45.3956 33.3281 44.8772V41.7912C33.3281 41.1099 33.8811 40.5569 34.5625 40.5569C35.2439 40.5569 35.7969 41.1099 35.7969 41.7912V44.8772C35.7969 46.4424 34.802 47.8446 33.3158 48.3655L23.0483 51.9674C20.2265 52.9722 18.0885 55.4138 17.4689 58.3393C17.343 58.9318 17.2812 59.5366 17.2812 60.134V60.8006C17.2812 61.4845 16.7282 62.035 16.0469 62.035Z" fill="white"/>
<path d="M39.5 44.7539C38.8186 44.7539 38.2656 44.2009 38.2656 43.5196C38.2656 42.8382 38.8186 42.2852 39.5 42.2852C42.0626 42.2852 46.9062 39.9646 46.9062 31.1758V27.4727C46.9062 23.3894 43.5833 20.0664 39.5 20.0664C35.4167 20.0664 32.0938 23.3894 32.0938 27.4727V31.1758C32.0938 35.4319 33.2318 38.6882 35.3821 40.5916C35.8932 41.0434 35.9425 41.8235 35.4883 42.3346C35.0316 42.8481 34.2539 42.89 33.7478 42.4407C31.8666 40.7768 29.625 37.4736 29.625 31.1758V27.4727C29.625 22.0266 34.0539 17.5977 39.5 17.5977C44.9461 17.5977 49.375 22.0266 49.375 27.4727V31.1758C49.375 41.9173 42.9167 44.7539 39.5 44.7539Z" fill="white"/>
<path d="M58.3076 84.2539C57.8534 84.2539 57.4189 84.0021 57.2016 83.5676C56.9004 82.9553 57.1498 82.2171 57.762 81.9135L63.8672 78.8893C64.2104 78.7189 64.6202 78.7189 64.9609 78.8893L68.9504 80.8667L68.3011 76.4625C68.2468 76.0823 68.3702 75.6947 68.6418 75.4207L71.7598 72.2335L67.3655 71.4855C66.9877 71.4213 66.6594 71.1818 66.4792 70.8412L64.4153 66.8961L62.349 70.8412C62.1687 71.1818 61.8404 71.4213 61.4627 71.4855L57.0708 72.2335L60.1863 75.4207C60.6628 75.9095 60.6529 76.6896 60.1666 77.1661C59.6778 77.645 58.8952 77.6351 58.4212 77.1463L53.659 72.2755C53.338 71.9471 53.2245 71.4682 53.3676 71.0312C53.5108 70.5943 53.8811 70.2733 54.3354 70.1968L60.448 69.155L63.3241 63.6645C63.5389 63.2571 63.961 63.0029 64.4178 63.0029C64.8794 63.0029 65.2966 63.2596 65.5114 63.6645L68.385 69.155L74.5001 70.1968C74.9544 70.2733 75.3247 70.5967 75.4679 71.0312C75.6111 71.4657 75.4975 71.9471 75.1766 72.2755L70.839 76.7069L71.7425 82.8393C71.8067 83.2935 71.6166 83.7478 71.2463 84.0169C70.876 84.2884 70.3823 84.3304 69.9725 84.123L64.4178 81.3704L58.8606 84.123C58.6804 84.2144 58.4928 84.2539 58.3076 84.2539Z" fill="#807AF9"/>
<path d="M32.2812 90.9713C32.0244 90.9713 31.7701 90.8923 31.5553 90.7368C31.185 90.4677 30.9925 90.0135 31.0591 89.5567L32.1404 82.1924L26.9363 76.8698C26.6154 76.5415 26.5018 76.0625 26.645 75.6256C26.7882 75.1886 27.1585 74.8652 27.6127 74.7911L34.9548 73.5419L38.4061 66.9479C38.8357 66.1332 40.1663 66.1332 40.5959 66.9479L44.0472 73.5419L51.3893 74.7911C51.8435 74.8677 52.2138 75.1911 52.357 75.6256C52.5002 76.0601 52.3866 76.5415 52.0657 76.8698L46.8591 82.1924L47.9429 89.5567C48.0071 90.011 47.817 90.4652 47.4467 90.7343C47.0764 91.0084 46.5826 91.0454 46.1728 90.8405L39.4998 87.5348L32.8292 90.8405C32.6564 90.9269 32.4688 90.9713 32.2812 90.9713ZM30.3481 76.8279L34.3327 80.9038C34.6018 81.1803 34.7277 81.5654 34.6734 81.9456L33.8439 87.5817L38.9517 85.0513C39.2949 84.8784 39.7047 84.8784 40.0454 85.0513L45.1507 87.5817L44.3212 81.9456C44.2669 81.5654 44.3904 81.1778 44.6619 80.9038L48.649 76.8279L43.0276 75.87C42.6499 75.8058 42.3216 75.5663 42.1413 75.2256L39.4998 70.177L36.8582 75.2256C36.678 75.5663 36.3496 75.8058 35.9719 75.87L30.3481 76.8279Z" fill="#5751E1"/>
<path d="M20.8921 84.2539C20.707 84.2539 20.5218 84.2119 20.344 84.1255L14.7894 81.3728L9.23222 84.128C8.82488 84.3304 8.3336 84.2909 7.95835 84.0193C7.58803 83.7503 7.39547 83.296 7.46213 82.8418L8.36569 76.7094L4.0281 72.278C3.70716 71.9496 3.5936 71.4707 3.73678 71.0337C3.87997 70.5968 4.25028 70.2734 4.70453 70.1993L10.8196 69.1575L13.6957 63.667C13.9105 63.2596 14.3326 63.0054 14.7894 63.0054C15.251 63.0054 15.6682 63.2621 15.883 63.667L18.7566 69.1575L24.8693 70.1993C25.3235 70.2758 25.6938 70.5992 25.837 71.0337C25.9802 71.4682 25.8666 71.9496 25.5457 72.278L20.7835 77.1463C20.312 77.6352 19.5294 77.645 19.0381 77.1661C18.5517 76.6896 18.5419 75.9095 19.0183 75.4207L22.1339 72.2335L17.742 71.4855C17.3618 71.4213 17.0359 71.1819 16.8557 70.8412L14.7918 66.8961L12.7255 70.8412C12.5453 71.1819 12.2169 71.4213 11.8392 71.4855L7.44485 72.2335L10.5629 75.4207C10.832 75.6972 10.9579 76.0823 10.9035 76.4625L10.2543 80.8668L14.2462 78.8893C14.5894 78.7189 14.9992 78.7189 15.3399 78.8893L21.4426 81.9135C22.0549 82.2172 22.3042 82.9553 22.003 83.5676C21.7809 84.0021 21.3439 84.2539 20.8921 84.2539Z" fill="#807AF9"/>
<path d="M94 13.8633C93.4937 14.2402 93.2405 14.6171 92.9873 14.7428C91.7215 15.2454 90.4557 15.7479 89.1899 16.2505C87.2911 16.8787 86.1519 18.1352 85.8987 20.1455C85.6456 21.7789 85.3924 23.4123 85.0127 25.0457C84.8861 25.5482 84.5063 26.3021 84.1266 26.4278C83.3671 26.5534 83.3671 25.6739 83.2405 25.1713C82.7342 23.6636 82.2278 22.0302 81.8481 20.5224C81.2152 18.3865 79.8228 17.2557 77.5443 17.2557C76.6582 17.2557 75.8987 17.13 75.0127 17.0044C74.5063 17.0044 74.2532 16.7531 74 16.5018C74.2532 16.2505 74.3797 15.8736 74.6329 15.7479C75.8987 15.2454 77.2911 14.7428 78.557 14.3658C79.8228 13.9889 80.7089 13.1094 80.962 11.8529C81.4684 9.84267 81.8481 7.83235 82.3544 5.94768C82.6076 5.31945 82.3544 4.43994 83.2405 4.43994C84.1266 4.43994 84 5.19381 84.1266 5.69639C84.5063 7.45542 84.8861 9.0888 85.3924 10.8478C86.0253 13.1094 86.5316 13.4863 88.9367 13.4863C90.2025 13.4863 91.5949 13.3607 92.8608 13.3607C92.9873 13.3607 93.3671 13.612 94 13.8633Z" fill="#434087"/>
<path d="M77 5.15162C76.7468 5.34009 76.6203 5.52856 76.4937 5.59138C75.8608 5.84267 75.2278 6.09396 74.5949 6.34525C73.6456 6.65936 73.0759 7.28759 72.9494 8.29275C72.8228 9.10944 72.6962 9.92613 72.5063 10.7428C72.443 10.9941 72.2532 11.371 72.0633 11.4338C71.6835 11.4967 71.6835 11.0569 71.6203 10.8056C71.3671 10.0518 71.1139 9.23508 70.9241 8.48121C70.6076 7.41323 69.9114 6.84783 68.7722 6.84783C68.3291 6.84783 67.9494 6.78501 67.5063 6.72219C67.2532 6.72219 67.1266 6.59654 67 6.4709C67.1266 6.34525 67.1899 6.15678 67.3165 6.09396C67.9494 5.84267 68.6456 5.59138 69.2785 5.40291C69.9114 5.21445 70.3544 4.77469 70.481 4.14646C70.7342 3.14131 70.9241 2.13615 71.1772 1.19381C71.3038 0.879698 71.1772 0.439941 71.6203 0.439941C72.0633 0.439941 72 0.816876 72.0633 1.06817C72.2532 1.94768 72.443 2.76437 72.6962 3.64389C73.0127 4.77469 73.2658 4.96316 74.4684 4.96316C75.1013 4.96316 75.7975 4.90033 76.4304 4.90033C76.4937 4.90033 76.6835 5.02598 77 5.15162Z" fill="#6663A9"/>
</g>
<defs>
<clipPath id="clip0_6512_4780">
<rect width="94" height="93" fill="white" transform="translate(0 0.439941)"/>
</clipPath>
</defs>
</svg>
