<svg width="84" height="82" viewBox="0 0 84 82" fill="none" xmlns="http://www.w3.org/2000/svg">
<g clip-path="url(#clip0_6512_4823)">
<mask id="mask0_6512_4823" style="mask-type:luminance" maskUnits="userSpaceOnUse" x="0" y="19" width="62" height="63">
<path d="M62 19.4399H0V81.4399H62V19.4399Z" fill="white"/>
</mask>
<g mask="url(#mask0_6512_4823)">
<path d="M24.8327 26.5761C24.6075 26.3508 24.295 26.2212 23.9766 26.2212C23.6581 26.2212 23.3457 26.3507 23.1204 26.5761C22.8952 26.8013 22.7656 27.1137 22.7656 27.4322C22.7656 27.7507 22.8952 28.0631 23.1204 28.2882C23.3457 28.5136 23.6581 28.6431 23.9766 28.6431C24.295 28.6431 24.6075 28.5136 24.8327 28.2882C25.0579 28.0631 25.1875 27.7507 25.1875 27.4322C25.1875 27.1137 25.0579 26.8013 24.8327 26.5761Z" fill="#5751E1"/>
<path d="M19.5014 26.2212H14.6367C13.9679 26.2212 13.4258 26.7635 13.4258 27.4322C13.4258 28.1009 13.9679 28.6431 14.6367 28.6431H19.5014C20.1702 28.6431 20.7124 28.1009 20.7124 27.4322C20.7124 26.7635 20.1702 26.2212 19.5014 26.2212Z" fill="#5751E1"/>
<path d="M20.4727 33.0024H14.6367C13.9679 33.0024 13.4258 33.5447 13.4258 34.2133C13.4258 34.882 13.9679 35.4243 14.6367 35.4243H20.4727C21.1415 35.4243 21.6836 34.882 21.6836 34.2133C21.6836 33.5447 21.1415 33.0024 20.4727 33.0024Z" fill="#5751E1"/>
<path d="M61.5326 44.6417C61.5327 44.6413 61.5329 44.6411 61.5331 44.6407L53.5409 38.4169C53.5352 38.4125 53.5291 38.409 53.5234 38.4046V37.1196C53.5234 36.4509 52.9813 35.9087 52.3125 35.9087C51.6437 35.9087 51.1016 36.4509 51.1016 37.1196V53.548C51.1016 53.5554 51.1025 53.5625 51.1027 53.5699L41.0828 63.5898L39.9226 62.536C38.1093 60.8886 35.8997 59.7904 33.5317 59.3316L36.6758 56.1875C37.1487 55.7146 37.1487 54.9479 36.6758 54.4749L32.6082 50.4072L50.3344 42.85C50.7044 42.6922 50.972 42.361 51.0484 41.9661C51.1248 41.5712 51.0002 41.1641 50.7158 40.8797L44.9276 35.0914C45.4175 34.2918 45.6802 33.371 45.6802 32.4095C45.6802 31.0346 45.1448 29.7422 44.1727 28.7699C43.2006 27.7978 41.908 27.2624 40.5331 27.2624C39.5716 27.2624 38.6508 27.5251 37.8512 28.015L32.063 22.2268C31.7784 21.9422 31.3715 21.8172 30.9763 21.8942C30.5813 21.9708 30.2502 22.2385 30.0925 22.6086L21.9319 41.7747L17.5396 46.1669C16.3054 47.4011 15.6256 49.0421 15.6256 50.7876C15.6256 52.533 16.3054 54.1739 17.5396 55.4081C18.7738 56.6423 20.4148 57.3221 22.1603 57.3221C23.9057 57.3221 25.5467 56.6424 26.7809 55.4081L27.2427 54.9463L31.3906 59.0942C31.2606 59.0905 31.1303 59.0878 30.9998 59.0878C27.6933 59.0878 24.5245 60.3122 22.0771 62.5356L20.9169 63.5895L10.897 53.5696C10.8971 53.5622 10.8981 53.555 10.8981 53.5475V21.8618H24.459C25.1278 21.8618 25.6699 21.3195 25.6699 20.6508C25.6699 19.9822 25.1278 19.4399 24.459 19.4399H9.6875C9.0187 19.4399 8.47656 19.9822 8.47656 20.6508V38.2111C8.46615 38.219 8.45513 38.2258 8.44496 38.234L0.45277 44.652C0.452648 44.6517 0.452891 44.6522 0.45277 44.652C0.176797 44.8739 0 45.2145 0 45.5961V75.2641C0 78.6694 2.77038 81.4399 6.17578 81.4399H55.8242C59.2296 81.4399 62 78.6694 62 75.2641V45.5961C62 45.2079 61.8167 44.8633 61.5326 44.6417ZM53.5234 41.4728L58.9635 45.7091L53.5234 51.1491V41.4728ZM40.5332 29.6846C41.2611 29.6846 41.9455 29.968 42.4603 30.4828C42.975 30.9975 43.2584 31.6818 43.2584 32.4098C43.2584 32.7101 43.2076 33.002 43.1147 33.2787L39.6643 29.8282C39.941 29.7353 40.2329 29.6846 40.5332 29.6846ZM31.6185 25.2075L36.8922 30.4811C36.8927 30.4816 36.8932 30.4822 36.8936 30.4828C36.8941 30.4834 36.8947 30.4838 36.8953 30.4843L42.4602 36.0491L47.7361 41.3251L45.1653 42.4211L30.5235 27.7793L31.6185 25.2075ZM29.5006 30.1816L42.7638 43.4448L30.7629 48.5613L24.3889 42.1872L29.5006 30.1816ZM25.0686 53.6959C24.2919 54.4727 23.2591 54.9005 22.1605 54.9005C21.062 54.9005 20.0292 54.4727 19.2523 53.6959C18.4755 52.9192 18.0477 51.8864 18.0477 50.7878C18.0477 49.6892 18.4755 48.6564 19.2523 47.8796L22.9543 44.1777L28.7703 49.9943L25.0686 53.6959ZM28.9555 53.234L30.4827 51.7069L34.107 55.3312L32.5798 56.8584L28.9555 53.234ZM8.47656 41.3146V51.1493L3.02214 45.6948L8.47656 41.3146ZM4.52055 78.4851C4.48628 78.5162 4.45468 78.5493 4.42477 78.5832C3.23478 77.9529 2.42188 76.702 2.42188 75.2641V48.5197L19.1225 65.2202L4.52055 78.4851ZM7.53566 79.018L11.5347 75.3852H20.4233C21.0921 75.3852 21.6342 74.843 21.6342 74.1743C21.6342 73.5056 21.0921 72.9633 20.4233 72.9633H14.2007L23.7059 64.3284C27.8643 60.5509 34.1358 60.5509 38.2942 64.3284L54.4643 79.018H7.53566ZM59.5781 75.2641C59.5781 76.702 58.7652 77.9529 57.5752 78.5832C57.5453 78.5491 57.5137 78.5162 57.4795 78.4851L42.8776 65.2202L59.5781 48.5197V75.2641Z" fill="#807AF9"/>
<path d="M53.2167 19.8426C52.7438 19.3699 51.977 19.3699 51.5042 19.8426L46.6125 24.7343C46.1396 25.2072 46.1396 25.974 46.6125 26.447C46.849 26.6833 47.1588 26.8017 47.4687 26.8017C47.7786 26.8017 48.0886 26.6833 48.325 26.447L53.2167 21.5553C53.6896 21.0824 53.6896 20.3156 53.2167 19.8426Z" fill="white"/>
<path d="M42.9179 19.4399C42.2491 19.4399 41.707 19.9822 41.707 20.6508V23.0832C41.707 23.7519 42.2491 24.2942 42.9179 24.2942C43.5867 24.2942 44.1288 23.7519 44.1288 23.0832V20.6508C44.1288 19.9822 43.5867 19.4399 42.9179 19.4399Z" fill="white"/>
<path d="M52.3966 28.8271H49.8828C49.214 28.8271 48.6719 29.3694 48.6719 30.0381C48.6719 30.7067 49.214 31.249 49.8828 31.249H52.3966C53.0654 31.249 53.6076 30.7067 53.6076 30.0381C53.6076 29.3694 53.0654 28.8271 52.3966 28.8271Z" fill="white"/>
<path d="M26.2448 73.3182C26.0184 73.093 25.7071 72.9634 25.3887 72.9634C25.069 72.9634 24.7578 73.0929 24.5313 73.3182C24.3061 73.5435 24.1777 73.8559 24.1777 74.1744C24.1777 74.4929 24.3061 74.8053 24.5313 75.0304C24.7578 75.2557 25.0702 75.3853 25.3887 75.3853C25.7071 75.3853 26.0184 75.2557 26.2448 75.0304C26.47 74.8053 26.5996 74.4929 26.5996 74.1744C26.5996 73.8559 26.47 73.5435 26.2448 73.3182Z" fill="white"/>
</g>
<path d="M84 13.8633C83.4937 14.2402 83.2405 14.6171 82.9873 14.7428C81.7215 15.2454 80.4557 15.7479 79.1899 16.2505C77.2911 16.8787 76.1519 18.1352 75.8987 20.1455C75.6456 21.7789 75.3924 23.4123 75.0127 25.0457C74.8861 25.5482 74.5063 26.3021 74.1266 26.4278C73.3671 26.5534 73.3671 25.6739 73.2405 25.1713C72.7342 23.6636 72.2278 22.0302 71.8481 20.5224C71.2152 18.3865 69.8228 17.2557 67.5443 17.2557C66.6582 17.2557 65.8987 17.13 65.0127 17.0044C64.5063 17.0044 64.2532 16.7531 64 16.5018C64.2532 16.2505 64.3797 15.8736 64.6329 15.7479C65.8987 15.2454 67.2911 14.7428 68.557 14.3658C69.8228 13.9889 70.7089 13.1094 70.962 11.8529C71.4684 9.84267 71.8481 7.83235 72.3544 5.94768C72.6076 5.31945 72.3544 4.43994 73.2405 4.43994C74.1266 4.43994 74 5.19381 74.1266 5.69639C74.5063 7.45542 74.8861 9.0888 75.3924 10.8478C76.0253 13.1094 76.5316 13.4863 78.9367 13.4863C80.2025 13.4863 81.5949 13.3607 82.8608 13.3607C82.9873 13.3607 83.3671 13.612 84 13.8633Z" fill="#434087"/>
<path d="M67 5.15162C66.7468 5.34009 66.6203 5.52856 66.4937 5.59138C65.8608 5.84267 65.2278 6.09396 64.5949 6.34525C63.6456 6.65936 63.0759 7.28759 62.9494 8.29275C62.8228 9.10944 62.6962 9.92613 62.5063 10.7428C62.443 10.9941 62.2532 11.371 62.0633 11.4338C61.6835 11.4967 61.6835 11.0569 61.6203 10.8056C61.3671 10.0518 61.1139 9.23508 60.9241 8.48121C60.6076 7.41323 59.9114 6.84783 58.7722 6.84783C58.3291 6.84783 57.9494 6.78501 57.5063 6.72219C57.2532 6.72219 57.1266 6.59654 57 6.4709C57.1266 6.34525 57.1899 6.15678 57.3165 6.09396C57.9494 5.84267 58.6456 5.59138 59.2785 5.40291C59.9114 5.21445 60.3544 4.77469 60.481 4.14646C60.7342 3.14131 60.9241 2.13615 61.1772 1.19381C61.3038 0.879698 61.1772 0.439941 61.6203 0.439941C62.0633 0.439941 62 0.816876 62.0633 1.06817C62.2532 1.94768 62.443 2.76437 62.6962 3.64389C63.0127 4.77469 63.2658 4.96316 64.4684 4.96316C65.1013 4.96316 65.7975 4.90033 66.4304 4.90033C66.4937 4.90033 66.6835 5.02598 67 5.15162Z" fill="#6663A9"/>
</g>
<defs>
<clipPath id="clip0_6512_4823">
<rect width="84" height="81" fill="white" transform="translate(0 0.439941)"/>
</clipPath>
</defs>
</svg>
